<svg width="40" height="40" viewBox="0 0 40 40" fill="none" xmlns="http://www.w3.org/2000/svg">
<circle cx="20" cy="20" r="20" fill="#FFC459" fill-opacity="0.1"/>
<g clip-path="url(#clip0_11284_12661)">
<path fill-rule="evenodd" clip-rule="evenodd" d="M26 15.5H11C10.6022 15.5 10.2206 15.658 9.93934 15.9393C9.65804 16.2206 9.5 16.6022 9.5 17V23C9.5 23.3978 9.65804 23.7794 9.93934 24.0607C10.2206 24.342 10.6022 24.5 11 24.5H26C26.3978 24.5 26.7794 24.342 27.0607 24.0607C27.342 23.7794 27.5 23.3978 27.5 23V17C27.5 16.6022 27.342 16.2206 27.0607 15.9393C26.7794 15.658 26.3978 15.5 26 15.5ZM11 14C10.2044 14 9.44129 14.3161 8.87868 14.8787C8.31607 15.4413 8 16.2044 8 17V23C8 23.7956 8.31607 24.5587 8.87868 25.1213C9.44129 25.6839 10.2044 26 11 26H26C26.7956 26 27.5587 25.6839 28.1213 25.1213C28.6839 24.5587 29 23.7956 29 23V17C29 16.2044 28.6839 15.4413 28.1213 14.8787C27.5587 14.3161 26.7956 14 26 14H11Z" fill="#FAA719"/>
<path d="M11 17H15.5V23H11V17ZM29.75 22.25C30.3467 22.25 30.919 22.0129 31.341 21.591C31.7629 21.169 32 20.5967 32 20C32 19.4033 31.7629 18.831 31.341 18.409C30.919 17.9871 30.3467 17.75 29.75 17.75V22.25Z" fill="#FAA719"/>
</g>
<defs>
<clipPath id="clip0_11284_12661">
<rect width="24" height="24" fill="white" transform="translate(8 8)"/>
</clipPath>
</defs>
</svg>
