<svg width="12" height="12" viewBox="0 0 12 12" fill="none" xmlns="http://www.w3.org/2000/svg">
<path fill-rule="evenodd" clip-rule="evenodd" d="M2.5 1.375C2.43096 1.375 2.375 1.43096 2.375 1.5V4.625H3.5C3.59946 4.625 3.69484 4.66451 3.76517 4.73484L4.90533 5.875H7.24086L5.94621 2.94044C5.52643 1.98896 4.58452 1.375 3.54455 1.375H2.5ZM9.125 8.28762L6.63239 2.63771C6.09268 1.41437 4.88165 0.625 3.54455 0.625H2.5C2.01675 0.625 1.625 1.01675 1.625 1.5V4.625H1.5C1.01675 4.625 0.625 5.01675 0.625 5.5V9C0.625 9.48325 1.01675 9.875 1.5 9.875H1.54726C1.71377 10.522 2.30106 11 3 11C3.69894 11 4.28623 10.522 4.45274 9.875H7.50617C7.56889 10.5067 8.10183 11 8.75 11C9.39817 11 9.93111 10.5067 9.99383 9.875H11.25C11.4571 9.875 11.625 9.70711 11.625 9.5C11.625 9.2929 11.4571 9.125 11.25 9.125H9.875V1.5C9.875 1.29289 9.70711 1.125 9.5 1.125C9.29289 1.125 9.125 1.29289 9.125 1.5V8.28762ZM8.75 10.25C9.02614 10.25 9.25 10.0261 9.25 9.75C9.25 9.47386 9.02614 9.25 8.75 9.25C8.49112 9.25 8.27819 9.44675 8.25258 9.69888C8.25087 9.71569 8.25 9.73274 8.25 9.75C8.25 10.0261 8.47386 10.25 8.75 10.25ZM3.75 9.5C3.75 9.91422 3.41421 10.25 3 10.25C2.58579 10.25 2.25 9.91422 2.25 9.5C2.25 9.08579 2.58579 8.75 3 8.75C3.41421 8.75 3.75 9.08579 3.75 9.5Z" fill="#AAAFC7"/>
</svg>
