<svg width="40" height="40" viewBox="0 0 40 40" fill="none" xmlns="http://www.w3.org/2000/svg">
<circle cx="20" cy="20" r="20" fill="#EB3B46" fill-opacity="0.1"/>
<path d="M24.875 15.6999L26.975 13.5999L29.075 15.6999L30.125 14.6499L28.025 12.5499L30.125 10.4499L29.075 9.3999L26.975 11.4999L24.875 9.3999L23.825 10.4499L25.925 12.5499L23.825 14.6499L24.875 15.6999ZM20 19.7499C20.4833 19.7499 20.8958 19.5791 21.2375 19.2374C21.5792 18.8957 21.75 18.4832 21.75 17.9999C21.75 17.5166 21.5792 17.1041 21.2375 16.7624C20.8958 16.4207 20.4833 16.2499 20 16.2499C19.5167 16.2499 19.1042 16.4207 18.7625 16.7624C18.4208 17.1041 18.25 17.5166 18.25 17.9999C18.25 18.4832 18.4208 18.8957 18.7625 19.2374C19.1042 19.5791 19.5167 19.7499 20 19.7499ZM20 29.9999C17.3167 27.7166 15.3125 25.5957 13.9875 23.6374C12.6625 21.6791 12 19.8666 12 18.1999C12 15.6999 12.8042 13.7082 14.4125 12.2249C16.0208 10.7416 17.8833 9.9999 20 9.9999C20.2833 9.9999 20.5542 10.0124 20.8125 10.0374C21.0708 10.0624 21.3333 10.0999 21.6 10.1499V11.6999C21.35 11.6332 21.0917 11.5832 20.825 11.5499C20.5583 11.5166 20.2833 11.4999 20 11.4999C18.1833 11.4999 16.6458 12.1249 15.3875 13.3749C14.1292 14.6249 13.5 16.2332 13.5 18.1999C13.5 19.4499 14.0417 20.8957 15.125 22.5374C16.2083 24.1791 17.8333 26.0082 20 28.0249C22.2167 26.0082 23.8542 24.1791 24.9125 22.5374C25.9708 20.8957 26.5 19.4499 26.5 18.1999C26.5 18.0666 26.4958 17.9332 26.4875 17.7999C26.4792 17.6666 26.4667 17.5332 26.45 17.3999H27.975C27.9917 17.5332 28 17.6666 28 17.7999C28 17.9332 28 18.0666 28 18.1999C28 19.8666 27.3375 21.6791 26.0125 23.6374C24.6875 25.5957 22.6833 27.7166 20 29.9999Z" fill="#EB3B46"/>
</svg>
