<svg width="14" height="14" viewBox="0 0 14 14" fill="none" xmlns="http://www.w3.org/2000/svg">
<path d="M4.95318 4.01355L5.08458 3.94079L5.01165 3.80949L4.5864 3.04387L4.51365 2.91289L4.38259 2.98548C3.33916 3.56342 2.51644 4.47058 2.04287 5.56533C1.5693 6.66009 1.47152 7.88084 1.7648 9.03702C2.05808 10.1932 2.72592 11.2197 3.66406 11.9564C4.60219 12.693 5.75784 13.0984 6.95059 13.1091C8.14333 13.1198 9.30606 12.7352 10.2573 12.0155C11.2085 11.2958 11.8946 10.2814 12.2086 9.13071C12.5226 7.97998 12.4467 6.75767 11.9929 5.65459C11.539 4.55152 10.7327 3.62975 9.69979 3.03318L9.56988 2.95815L9.49487 3.08807L9.05737 3.84582L8.98236 3.97573L9.11227 4.05073C9.92055 4.51737 10.5516 5.2385 10.9068 6.10156C11.2621 6.96461 11.3215 7.92101 11.076 8.82143C10.8304 9.72185 10.2936 10.5156 9.54936 11.0788C8.80512 11.642 7.89535 11.9429 6.96208 11.9346C6.02881 11.9262 5.12457 11.6091 4.39052 11.0327C3.65648 10.4563 3.13395 9.65305 2.90451 8.74838C2.67507 7.84371 2.75164 6.88854 3.12226 6.03197C3.49288 5.1754 4.13669 4.46566 4.95318 4.01355Z" fill="#AAAFC7" stroke="#AAAFC7" stroke-width="0.3"/>
<path d="M6.4125 7V7.15H6.5625H7.4375H7.5875V7V0.875V0.725H7.4375H6.5625H6.4125V0.875V7Z" fill="#AAAFC7" stroke="#AAAFC7" stroke-width="0.3"/>
</svg>
