<svg width="14" height="14" viewBox="0 0 14 14" fill="none" xmlns="http://www.w3.org/2000/svg">
<path d="M4.95342 4.01355L5.08482 3.94079L5.01189 3.80949L4.58664 3.04387L4.51389 2.91289L4.38283 2.98548C3.3394 3.56342 2.51669 4.47058 2.04311 5.56533C1.56954 6.66009 1.47176 7.88084 1.76505 9.03702C2.05833 10.1932 2.72616 11.2197 3.6643 11.9564C4.60244 12.693 5.75808 13.0984 6.95083 13.1091C8.14358 13.1198 9.30631 12.7352 10.2575 12.0155C11.2087 11.2958 11.8949 10.2814 12.2088 9.13071C12.5228 7.97998 12.4469 6.75767 11.9931 5.65459C11.5392 4.55152 10.7329 3.62975 9.70003 3.03318L9.57012 2.95815L9.49511 3.08807L9.05761 3.84582L8.98261 3.97573L9.11251 4.05073C9.92079 4.51737 10.5518 5.2385 10.9071 6.10156C11.2623 6.96461 11.3218 7.92101 11.0762 8.82143C10.8306 9.72185 10.2938 10.5156 9.5496 11.0788C8.80537 11.642 7.8956 11.9429 6.96233 11.9346C6.02906 11.9262 5.12481 11.6091 4.39077 11.0327C3.65672 10.4563 3.13419 9.65305 2.90475 8.74838C2.67531 7.84371 2.75188 6.88854 3.1225 6.03197C3.49312 5.1754 4.13693 4.46566 4.95342 4.01355Z" fill="#41B855" stroke="#41B855" stroke-width="0.3"/>
<path d="M6.4125 7V7.15H6.5625H7.4375H7.5875V7V0.875V0.725H7.4375H6.5625H6.4125V0.875V7Z" fill="#41B855" stroke="#41B855" stroke-width="0.3"/>
</svg>
