<svg width="40" height="40" viewBox="0 0 40 40" fill="none" xmlns="http://www.w3.org/2000/svg">
<circle cx="20" cy="20" r="20" fill="#EB3B46" fill-opacity="0.1"/>
<g clip-path="url(#clip0_11284_12668)">
<path d="M30.7958 26.1591L28.7492 24.0328C28.7373 24.0069 28.7253 23.981 28.7104 23.9572L25.6491 19.0962C25.3692 18.6513 24.9161 18.3646 24.4062 18.3098C23.8963 18.255 23.3974 18.4391 23.0348 18.8158L18.3602 23.6727C17.9977 24.0493 17.8204 24.5687 17.8732 25.0975C17.9259 25.6262 18.2018 26.097 18.63 26.3888L23.3087 29.5695C23.3326 29.586 23.3585 29.5995 23.3844 29.6129L25.4788 31.7889C25.6152 31.9307 25.7935 32.001 25.9717 32.001C26.15 32.001 26.3282 31.9307 26.4647 31.7889C26.7366 31.5064 26.7366 31.047 26.4647 30.7645L24.7378 28.9704L28.1338 25.442L29.8109 27.1845C30.0827 27.4669 30.5249 27.4669 30.7968 27.1845C31.0687 26.902 31.0687 26.4426 30.7968 26.1601L30.7958 26.1591ZM19.2594 24.9485C19.2535 24.8936 19.2574 24.7881 19.3451 24.697L24.0198 19.8401C24.0925 19.7646 24.1741 19.7491 24.2299 19.7491C24.2419 19.7491 24.2518 19.7491 24.2618 19.7511C24.3146 19.7563 24.4132 19.7822 24.4809 19.8898L27.2315 24.2583L23.5965 28.035L19.3919 25.1771C19.2883 25.1068 19.2634 25.0043 19.2584 24.9495L19.2594 24.9485Z" fill="#EB3B46"/>
<path d="M20.841 19.1544C21.1228 18.8615 21.2781 18.4715 21.2781 18.0565C21.2781 17.6416 21.1228 17.2526 20.841 16.9587L18.887 14.9286L19.3939 14.402C19.6758 14.1091 19.8311 13.719 19.8311 13.3041C19.8311 12.8892 19.6758 12.5002 19.3939 12.2063L17.3514 10.0841C16.7837 9.49434 15.8695 9.48089 15.2839 10.0417L13.5222 8.21234C13.2503 7.92987 12.8081 7.92987 12.5363 8.21234C12.2644 8.49482 12.2644 8.95423 12.5363 9.2367L14.2631 11.0309L10.8672 14.5592L9.19008 12.8168C8.9182 12.5343 8.47603 12.5343 8.20415 12.8168C7.93227 13.0993 7.93227 13.5587 8.20415 13.8411L9.91708 15.6208C9.37731 16.2292 9.39025 17.1791 9.95791 17.7689L12.0005 19.8911C12.2913 20.1932 12.6747 20.3453 13.0571 20.3453C13.4395 20.3453 13.8219 20.1942 14.1137 19.8911L14.5928 19.3934L16.5467 21.4235C16.8375 21.7256 17.2209 21.8777 17.6033 21.8777C17.9857 21.8777 18.3682 21.7266 18.66 21.4235L20.8429 19.1554L20.841 19.1544ZM12.9864 18.8667L10.9438 16.7445C10.905 16.7042 10.905 16.639 10.9438 16.5986L16.225 11.1106C16.2639 11.0702 16.3266 11.0702 16.3664 11.1106L18.409 13.2327C18.4329 13.2576 18.4379 13.2865 18.4379 13.3062C18.4379 13.3259 18.4329 13.3538 18.409 13.3797L17.5406 14.2819C17.4868 14.314 17.436 14.3523 17.3912 14.3988L14.0819 17.8372C14.0371 17.8837 13.9992 17.9365 13.9693 17.9924L13.1288 18.8657C13.09 18.906 13.0262 18.906 12.9874 18.8657L12.9864 18.8667ZM17.5316 20.3981L15.5777 18.369L17.9011 15.955L19.855 17.9851C19.8789 18.01 19.8839 18.0389 19.8839 18.0586C19.8839 18.0783 19.8789 18.1062 19.855 18.1321L17.672 20.4001C17.6332 20.4405 17.5695 20.4405 17.5306 20.4001L17.5316 20.3981Z" fill="#EB3B46"/>
<path d="M14.0451 16.8499L16.3854 14.4183C16.6573 14.1359 16.6573 13.6765 16.3854 13.394C16.1135 13.1115 15.6713 13.1115 15.3995 13.394L13.0591 15.8255C12.7873 16.108 12.7873 16.5674 13.0591 16.8499C13.1956 16.9917 13.3738 17.062 13.5521 17.062C13.7304 17.062 13.9086 16.9917 14.0451 16.8499Z" fill="#EB3B46"/>
<path d="M24.9758 22.3203C24.7039 22.0378 24.2617 22.0378 23.9899 22.3203L21.9483 24.4414C21.6764 24.7239 21.6764 25.1833 21.9483 25.4658C22.0847 25.6075 22.263 25.6779 22.4413 25.6779C22.6195 25.6779 22.7978 25.6075 22.9342 25.4658L24.9758 23.3446C25.2477 23.0621 25.2477 22.6027 24.9758 22.3203Z" fill="#EB3B46"/>
</g>
<defs>
<clipPath id="clip0_11284_12668">
<rect width="23" height="24" fill="white" transform="translate(8 8)"/>
</clipPath>
</defs>
</svg>
