<svg width="11" height="11" viewBox="0 0 11 11" fill="none" xmlns="http://www.w3.org/2000/svg">
<path fill-rule="evenodd" clip-rule="evenodd" d="M1.5 0.75C1.30109 0.75 1.11032 0.829018 0.96967 0.96967C0.829018 1.11032 0.75 1.30109 0.75 1.5V4.9395C0.750042 5.1384 0.829088 5.32913 0.96975 5.46975L6.21975 10.7198C6.3604 10.8604 6.55113 10.9393 6.75 10.9393C6.94887 10.9393 7.1396 10.8604 7.28025 10.7198L10.7198 7.28025C10.8604 7.13961 10.9393 6.94887 10.9393 6.75C10.9393 6.55113 10.8604 6.3604 10.7198 6.21975L5.46975 0.96975C5.32913 0.829088 5.1384 0.750042 4.9395 0.75H1.5ZM4.5 3.375C4.5 3.67337 4.38147 3.95952 4.1705 4.1705C3.95952 4.38147 3.67337 4.5 3.375 4.5C3.07663 4.5 2.79048 4.38147 2.57951 4.1705C2.36853 3.95952 2.25 3.67337 2.25 3.375C2.25 3.07663 2.36853 2.79048 2.57951 2.57951C2.79048 2.36853 3.07663 2.25 3.375 2.25C3.67337 2.25 3.95952 2.36853 4.1705 2.57951C4.38147 2.79048 4.5 3.07663 4.5 3.375Z" fill="#AAAFC7"/>
</svg>
