<svg width="14" height="18" viewBox="0 0 14 18" fill="none" xmlns="http://www.w3.org/2000/svg">
<path fill-rule="evenodd" clip-rule="evenodd" d="M10.6574 0.0765087C10.7675 0.140339 10.8527 0.239622 10.8991 0.358138C10.9454 0.476654 10.9503 0.607397 10.9127 0.729009L8.88661 7.31251H12.625C12.7348 7.31246 12.8423 7.34459 12.9341 7.40493C13.0259 7.46526 13.0981 7.55116 13.1416 7.65202C13.1852 7.75289 13.1982 7.86429 13.1792 7.97249C13.1602 8.08069 13.1098 8.18095 13.0345 8.26088L4.03448 17.8234C3.9474 17.916 3.83152 17.9764 3.70573 17.9947C3.57993 18.013 3.45165 17.9881 3.34178 17.9242C3.23192 17.8603 3.14695 17.761 3.10072 17.6426C3.05449 17.5242 3.04974 17.3936 3.08723 17.2721L5.11336 10.6875H1.37498C1.26512 10.6876 1.15765 10.6554 1.06584 10.5951C0.974026 10.5348 0.901892 10.4489 0.858341 10.348C0.81479 10.2471 0.801728 10.1357 0.820768 10.0275C0.839807 9.91932 0.890115 9.81907 0.96548 9.73913L9.96548 0.176634C10.0525 0.0841577 10.1682 0.0238234 10.2938 0.0054408C10.4194 -0.0129418 10.5475 0.0117085 10.6574 0.0753837V0.0765087Z" fill="#6F7592"/>
</svg>
