<svg width="24" height="25" viewBox="0 0 24 25" fill="none" xmlns="http://www.w3.org/2000/svg">
<path fill-rule="evenodd" clip-rule="evenodd" d="M8.78088 7.46888C8.85072 7.53854 8.90614 7.62131 8.94394 7.71242C8.98175 7.80354 9.00122 7.90122 9.00122 7.99988C9.00122 8.09853 8.98175 8.19621 8.94394 8.28733C8.90614 8.37844 8.85072 8.46121 8.78088 8.53088L4.81038 12.4999L8.78088 16.4689C8.85061 16.5386 8.90592 16.6214 8.94366 16.7125C8.9814 16.8036 9.00082 16.9013 9.00082 16.9999C9.00082 17.0985 8.9814 17.1961 8.94366 17.2873C8.90592 17.3784 8.85061 17.4611 8.78088 17.5309C8.71114 17.6006 8.62836 17.6559 8.53725 17.6937C8.44614 17.7314 8.34849 17.7508 8.24988 17.7508C8.15126 17.7508 8.05361 17.7314 7.9625 17.6937C7.87139 17.6559 7.78861 17.6006 7.71888 17.5309L3.21888 13.0309C3.14903 12.9612 3.09362 12.8784 3.05581 12.7873C3.018 12.6962 2.99854 12.5985 2.99854 12.4999C2.99854 12.4012 3.018 12.3035 3.05581 12.2124C3.09362 12.1213 3.14903 12.0385 3.21888 11.9689L7.71888 7.46888C7.78854 7.39903 7.87131 7.34362 7.96243 7.30581C8.05354 7.268 8.15123 7.24854 8.24988 7.24854C8.34853 7.24854 8.44621 7.268 8.53733 7.30581C8.62844 7.34362 8.71121 7.39903 8.78088 7.46888Z" fill="#6F7592"/>
<path fill-rule="evenodd" clip-rule="evenodd" d="M3.75 12.5C3.75 12.3011 3.82902 12.1103 3.96967 11.9697C4.11032 11.829 4.30109 11.75 4.5 11.75H20.25C20.4489 11.75 20.6397 11.829 20.7803 11.9697C20.921 12.1103 21 12.3011 21 12.5C21 12.6989 20.921 12.8897 20.7803 13.0303C20.6397 13.171 20.4489 13.25 20.25 13.25H4.5C4.30109 13.25 4.11032 13.171 3.96967 13.0303C3.82902 12.8897 3.75 12.6989 3.75 12.5Z" fill="#6F7592"/>
</svg>
