<svg width="16" height="13" viewBox="0 0 16 13" fill="none" xmlns="http://www.w3.org/2000/svg">
<path fill-rule="evenodd" clip-rule="evenodd" d="M14.9539 2.30336C14.59 1.69294 14.0571 1.2009 13.4197 0.886681C12.7058 0.541076 11.9202 0.369715 11.1272 0.386675H5.67721V7.75253H7.92722V2.41917H11.0606C11.3493 2.40631 11.6378 2.45049 11.9095 2.54915C12.1811 2.64781 12.4307 2.79902 12.6439 2.99417C12.8463 3.19154 13.0047 3.4294 13.1088 3.69219C13.2129 3.95498 13.2603 4.23679 13.2481 4.51919V7.58585C13.295 8.23667 13.1037 8.88235 12.7097 9.40251C12.5078 9.61589 12.261 9.78188 11.9873 9.8885C11.7135 9.99513 11.4195 10.0398 11.1264 10.0192H5.67639V12.0525H11.1922C11.776 12.0948 12.3623 12.018 12.9155 11.8269C13.4687 11.6358 13.9773 11.3344 14.4106 10.9409C14.7995 10.4972 15.0964 9.9807 15.2841 9.42136C15.4718 8.86201 15.5465 8.27097 15.5039 7.68251V4.41586C15.5189 3.67356 15.3298 2.94139 14.9572 2.29919L14.9539 2.30336ZM2.96391 5.20001C2.96974 5.04863 2.94493 4.89763 2.89102 4.75605C2.83711 4.61448 2.75518 4.48525 2.65014 4.37608C2.5451 4.26692 2.4191 4.18007 2.27971 4.12075C2.14031 4.06144 1.99037 4.03088 1.83888 4.03088C1.68739 4.03088 1.53745 4.06144 1.39805 4.12075C1.25866 4.18007 1.13266 4.26692 1.02762 4.37608C0.92258 4.48525 0.840697 4.61448 0.786786 4.75605C0.732875 4.89763 0.708072 5.04863 0.7139 5.20001V10.4859C0.705261 10.695 0.739964 10.9036 0.815828 11.0986C0.891692 11.2936 1.00707 11.4709 1.15473 11.6192C1.30617 11.7646 1.48544 11.878 1.68176 11.9524C1.87809 12.0269 2.08745 12.0609 2.29725 12.0525H2.96391V5.20001ZM2.93538 2.48812C3.08588 2.27184 3.1691 2.01592 3.17469 1.75249C3.17847 1.39472 3.04025 1.05004 2.79032 0.794012C2.54038 0.537984 2.19914 0.391512 1.84137 0.386679C1.57789 0.385917 1.32004 0.462985 1.1002 0.608236C0.880365 0.753487 0.708314 0.960426 0.605667 1.2031C0.503019 1.44577 0.474337 1.71338 0.523218 1.9723C0.5721 2.23121 0.696367 2.46991 0.880426 2.65846C1.06449 2.847 1.30015 2.97699 1.55782 3.0321C1.81548 3.0872 2.08367 3.06496 2.32874 2.96819C2.57382 2.87141 2.78488 2.7044 2.93538 2.48812Z" fill="#6F7592"/>
</svg>
