<svg width="162" height="34" viewBox="0 0 162 34" fill="none" xmlns="http://www.w3.org/2000/svg">
<path d="M44.952 25.104C45.904 25.748 48.48 26.448 50.944 26.448C54.528 26.448 57.776 24.936 57.776 21.576C57.776 15.836 49.628 15.948 49.628 13.26C49.628 12.28 50.608 11.832 52.036 11.832C53.828 11.832 55.396 12.336 56.712 13.008V9.48C55.564 8.892 53.772 8.528 51.728 8.528C48.144 8.528 45.26 10.068 45.26 13.344C45.26 18.972 53.352 18.58 53.352 21.576C53.352 22.836 52.232 23.144 50.636 23.144C48.732 23.144 46.352 22.556 44.952 21.604V25.104ZM75.425 21.604C74.053 22.64 72.317 23.144 70.497 23.144C67.025 23.144 64.505 21.1 64.505 17.432C64.505 13.932 66.689 11.832 70.301 11.832C72.429 11.832 73.969 12.364 75.229 13.176V9.452C74.137 8.976 72.485 8.472 69.909 8.472C64.505 8.472 59.913 11.664 59.913 17.432C59.913 23.62 64.533 26.504 69.825 26.504C72.653 26.504 74.557 25.832 75.425 25.272V21.604ZM90.3536 22.668C89.5976 22.976 88.9816 23.088 87.7776 23.088C84.2216 23.088 81.8136 21.296 81.8136 17.628C81.8136 13.456 84.5856 11.832 88.3096 11.832C90.2416 11.832 92.5096 12.392 93.8816 13.148V9.48C92.5656 8.892 90.5496 8.472 88.0856 8.472C82.0096 8.472 77.2216 11.72 77.2216 17.768C77.2216 23.592 81.7856 26.504 87.3296 26.504C90.3536 26.504 92.8456 25.748 94.4976 24.992V17.488H90.3536V22.668ZM101.946 26V13.4H97.6904V26H101.946ZM102.478 9.732C102.478 8.304 101.61 7.408 99.8184 7.408C98.0264 7.408 97.1584 8.304 97.1584 9.732C97.1584 11.16 98.0264 12.056 99.8184 12.056C101.61 12.056 102.478 11.16 102.478 9.732ZM120.294 17.18C120.294 14.8 118.334 13.036 116.15 13.036C113.798 13.036 112.006 14.968 112.006 17.18C112.006 19.56 113.966 21.324 116.15 21.324C118.502 21.324 120.294 19.42 120.294 17.18ZM142.267 26V22.584H134.651V18.916H141.595V15.584H134.651V12.336H142.267V8.92H130.339V26H142.267ZM154.901 26L161.649 8.92H156.945L154.229 16.48L152.661 22.304H152.605L151.037 16.48L148.321 8.92H143.617L150.365 26H154.901Z" fill="#EB3B46"/>
<circle cx="16" cy="17" r="16" fill="url(#paint0_linear_11226_15061)"/>
<g clip-path="url(#clip0_11226_15061)">
<path fill-rule="evenodd" clip-rule="evenodd" d="M20.0639 7.08506C20.1862 7.15599 20.2809 7.2663 20.3324 7.39799C20.384 7.52967 20.3893 7.67494 20.3476 7.81006L18.0964 15.1251H22.2501C22.3722 15.125 22.4916 15.1607 22.5936 15.2278C22.6956 15.2948 22.7758 15.3902 22.8242 15.5023C22.8726 15.6144 22.8871 15.7382 22.8659 15.8584C22.8448 15.9786 22.7889 16.09 22.7051 16.1788L12.7051 26.8038C12.6084 26.9067 12.4796 26.9738 12.3398 26.9941C12.2001 27.0145 12.0575 26.9869 11.9355 26.9158C11.8134 26.8448 11.719 26.7345 11.6676 26.6029C11.6163 26.4714 11.611 26.3263 11.6526 26.1913L13.9039 18.8751H9.75013C9.62806 18.8751 9.50865 18.8394 9.40663 18.7724C9.30462 18.7053 9.22447 18.6099 9.17608 18.4978C9.12769 18.3858 9.11318 18.262 9.13434 18.1417C9.15549 18.0215 9.21139 17.9101 9.29513 17.8213L19.2951 7.19631C19.3918 7.09356 19.5203 7.02652 19.6599 7.0061C19.7995 6.98567 19.9418 7.01306 20.0639 7.08381V7.08506Z" fill="white"/>
</g>
<defs>
<linearGradient id="paint0_linear_11226_15061" x1="6" y1="4.5" x2="24.5" y2="33" gradientUnits="userSpaceOnUse">
<stop stop-color="#FF8B92"/>
<stop offset="1" stop-color="#C7121D"/>
</linearGradient>
<clipPath id="clip0_11226_15061">
<rect width="20" height="20" fill="white" transform="translate(6.00012 7)"/>
</clipPath>
</defs>
</svg>
